<mxfile host="app.diagrams.net" modified="2023-07-30T17:11:14.198Z" agent="Mozilla/5.0 (Windows NT 10.0; Win64; x64) AppleWebKit/537.36 (KHTML, like Gecko) Chrome/115.0.0.0 Safari/537.36" etag="dkm4yv8mBTGoigVKlZLa" version="21.6.6" type="device" pages="3">
  <diagram id="C5RBs43oDa-KdzZeNtuy" name="Page-1">
    <mxGraphModel dx="1272" dy="1675" grid="1" gridSize="10" guides="1" tooltips="1" connect="1" arrows="1" fold="1" page="1" pageScale="1" pageWidth="827" pageHeight="1169" math="0" shadow="0">
      <root>
        <mxCell id="WIyWlLk6GJQsqaUBKTNV-0" />
        <mxCell id="WIyWlLk6GJQsqaUBKTNV-1" parent="WIyWlLk6GJQsqaUBKTNV-0" />
        <mxCell id="WIyWlLk6GJQsqaUBKTNV-3" value="Clientes" style="rounded=1;whiteSpace=wrap;html=1;fontSize=12;glass=0;strokeWidth=1;shadow=0;" parent="WIyWlLk6GJQsqaUBKTNV-1" vertex="1">
          <mxGeometry x="160" y="80" width="120" height="40" as="geometry" />
        </mxCell>
        <mxCell id="WIyWlLk6GJQsqaUBKTNV-6" value="Comprar" style="rhombus;whiteSpace=wrap;html=1;shadow=0;fontFamily=Helvetica;fontSize=12;align=center;strokeWidth=1;spacing=6;spacingTop=-4;" parent="WIyWlLk6GJQsqaUBKTNV-1" vertex="1">
          <mxGeometry x="390" y="60" width="100" height="80" as="geometry" />
        </mxCell>
        <mxCell id="mx5_N-fvzEg2yM81KQJ--0" value="Productos" style="rounded=1;whiteSpace=wrap;html=1;fontSize=12;glass=0;strokeWidth=1;shadow=0;" parent="WIyWlLk6GJQsqaUBKTNV-1" vertex="1">
          <mxGeometry x="590" y="80" width="120" height="40" as="geometry" />
        </mxCell>
        <mxCell id="mx5_N-fvzEg2yM81KQJ--1" value="Proveedor" style="rounded=1;whiteSpace=wrap;html=1;fontSize=12;glass=0;strokeWidth=1;shadow=0;" parent="WIyWlLk6GJQsqaUBKTNV-1" vertex="1">
          <mxGeometry x="590" y="320" width="120" height="40" as="geometry" />
        </mxCell>
        <mxCell id="mx5_N-fvzEg2yM81KQJ--2" value="suministrar" style="rhombus;whiteSpace=wrap;html=1;shadow=0;fontFamily=Helvetica;fontSize=12;align=center;strokeWidth=1;spacing=6;spacingTop=-4;" parent="WIyWlLk6GJQsqaUBKTNV-1" vertex="1">
          <mxGeometry x="600" y="180" width="100" height="80" as="geometry" />
        </mxCell>
        <mxCell id="mx5_N-fvzEg2yM81KQJ--3" value="nombre" style="ellipse;whiteSpace=wrap;html=1;aspect=fixed;" parent="WIyWlLk6GJQsqaUBKTNV-1" vertex="1">
          <mxGeometry x="120" width="60" height="60" as="geometry" />
        </mxCell>
        <mxCell id="mx5_N-fvzEg2yM81KQJ--4" value="apellido" style="ellipse;whiteSpace=wrap;html=1;aspect=fixed;" parent="WIyWlLk6GJQsqaUBKTNV-1" vertex="1">
          <mxGeometry x="220" width="60" height="60" as="geometry" />
        </mxCell>
        <mxCell id="mx5_N-fvzEg2yM81KQJ--5" value="dni" style="ellipse;whiteSpace=wrap;html=1;aspect=fixed;fillColor=#4FBEFF;" parent="WIyWlLk6GJQsqaUBKTNV-1" vertex="1">
          <mxGeometry x="60" y="70" width="60" height="60" as="geometry" />
        </mxCell>
        <mxCell id="mx5_N-fvzEg2yM81KQJ--6" value="fecha nacimiento" style="ellipse;whiteSpace=wrap;html=1;aspect=fixed;" parent="WIyWlLk6GJQsqaUBKTNV-1" vertex="1">
          <mxGeometry x="120" y="150" width="60" height="60" as="geometry" />
        </mxCell>
        <mxCell id="mx5_N-fvzEg2yM81KQJ--7" value="direccion" style="ellipse;whiteSpace=wrap;html=1;aspect=fixed;" parent="WIyWlLk6GJQsqaUBKTNV-1" vertex="1">
          <mxGeometry x="210" y="150" width="60" height="60" as="geometry" />
        </mxCell>
        <mxCell id="mx5_N-fvzEg2yM81KQJ--11" value="" style="endArrow=none;html=1;rounded=0;" parent="WIyWlLk6GJQsqaUBKTNV-1" target="WIyWlLk6GJQsqaUBKTNV-3" edge="1">
          <mxGeometry width="50" height="50" relative="1" as="geometry">
            <mxPoint x="160" y="150" as="sourcePoint" />
            <mxPoint x="210" y="100" as="targetPoint" />
          </mxGeometry>
        </mxCell>
        <mxCell id="mx5_N-fvzEg2yM81KQJ--12" value="" style="endArrow=none;html=1;rounded=0;entryX=0.567;entryY=1.05;entryDx=0;entryDy=0;entryPerimeter=0;exitX=0.5;exitY=0;exitDx=0;exitDy=0;" parent="WIyWlLk6GJQsqaUBKTNV-1" source="mx5_N-fvzEg2yM81KQJ--7" target="WIyWlLk6GJQsqaUBKTNV-3" edge="1">
          <mxGeometry width="50" height="50" relative="1" as="geometry">
            <mxPoint x="170" y="160" as="sourcePoint" />
            <mxPoint x="206" y="130" as="targetPoint" />
          </mxGeometry>
        </mxCell>
        <mxCell id="mx5_N-fvzEg2yM81KQJ--13" value="" style="endArrow=none;html=1;rounded=0;entryX=0;entryY=0.5;entryDx=0;entryDy=0;exitX=1;exitY=0.5;exitDx=0;exitDy=0;" parent="WIyWlLk6GJQsqaUBKTNV-1" source="mx5_N-fvzEg2yM81KQJ--5" target="WIyWlLk6GJQsqaUBKTNV-3" edge="1">
          <mxGeometry width="50" height="50" relative="1" as="geometry">
            <mxPoint x="180" y="170" as="sourcePoint" />
            <mxPoint x="216" y="140" as="targetPoint" />
          </mxGeometry>
        </mxCell>
        <mxCell id="mx5_N-fvzEg2yM81KQJ--14" value="" style="endArrow=none;html=1;rounded=0;entryX=0.25;entryY=0;entryDx=0;entryDy=0;" parent="WIyWlLk6GJQsqaUBKTNV-1" source="mx5_N-fvzEg2yM81KQJ--3" target="WIyWlLk6GJQsqaUBKTNV-3" edge="1">
          <mxGeometry width="50" height="50" relative="1" as="geometry">
            <mxPoint x="130" y="110" as="sourcePoint" />
            <mxPoint x="170" y="110" as="targetPoint" />
          </mxGeometry>
        </mxCell>
        <mxCell id="mx5_N-fvzEg2yM81KQJ--15" value="" style="endArrow=none;html=1;rounded=0;entryX=0.5;entryY=0;entryDx=0;entryDy=0;exitX=0;exitY=1;exitDx=0;exitDy=0;" parent="WIyWlLk6GJQsqaUBKTNV-1" source="mx5_N-fvzEg2yM81KQJ--4" target="WIyWlLk6GJQsqaUBKTNV-3" edge="1">
          <mxGeometry width="50" height="50" relative="1" as="geometry">
            <mxPoint x="179" y="63" as="sourcePoint" />
            <mxPoint x="200" y="90" as="targetPoint" />
          </mxGeometry>
        </mxCell>
        <mxCell id="mx5_N-fvzEg2yM81KQJ--16" value="" style="endArrow=none;html=1;rounded=0;exitX=1;exitY=0.5;exitDx=0;exitDy=0;entryX=0;entryY=0.5;entryDx=0;entryDy=0;" parent="WIyWlLk6GJQsqaUBKTNV-1" source="WIyWlLk6GJQsqaUBKTNV-3" target="WIyWlLk6GJQsqaUBKTNV-6" edge="1">
          <mxGeometry width="50" height="50" relative="1" as="geometry">
            <mxPoint x="390" y="230" as="sourcePoint" />
            <mxPoint x="440" y="180" as="targetPoint" />
          </mxGeometry>
        </mxCell>
        <mxCell id="mx5_N-fvzEg2yM81KQJ--17" value="" style="endArrow=none;html=1;rounded=0;entryX=0;entryY=0.5;entryDx=0;entryDy=0;" parent="WIyWlLk6GJQsqaUBKTNV-1" edge="1">
          <mxGeometry width="50" height="50" relative="1" as="geometry">
            <mxPoint x="490" y="100" as="sourcePoint" />
            <mxPoint x="590" y="99.5" as="targetPoint" />
          </mxGeometry>
        </mxCell>
        <mxCell id="mx5_N-fvzEg2yM81KQJ--18" value="nombre" style="ellipse;whiteSpace=wrap;html=1;aspect=fixed;" parent="WIyWlLk6GJQsqaUBKTNV-1" vertex="1">
          <mxGeometry x="590" y="-20" width="60" height="60" as="geometry" />
        </mxCell>
        <mxCell id="mx5_N-fvzEg2yM81KQJ--19" value="codigo" style="ellipse;whiteSpace=wrap;html=1;aspect=fixed;fillColor=#4FB3FF;" parent="WIyWlLk6GJQsqaUBKTNV-1" vertex="1">
          <mxGeometry x="690" y="-30" width="60" height="60" as="geometry" />
        </mxCell>
        <mxCell id="mx5_N-fvzEg2yM81KQJ--20" value="precio unitario" style="ellipse;whiteSpace=wrap;html=1;aspect=fixed;" parent="WIyWlLk6GJQsqaUBKTNV-1" vertex="1">
          <mxGeometry x="740" y="80" width="60" height="60" as="geometry" />
        </mxCell>
        <mxCell id="mx5_N-fvzEg2yM81KQJ--21" value="" style="endArrow=none;html=1;rounded=0;entryX=0;entryY=1;entryDx=0;entryDy=0;" parent="WIyWlLk6GJQsqaUBKTNV-1" target="mx5_N-fvzEg2yM81KQJ--19" edge="1">
          <mxGeometry width="50" height="50" relative="1" as="geometry">
            <mxPoint x="670" y="80" as="sourcePoint" />
            <mxPoint x="720" y="30" as="targetPoint" />
          </mxGeometry>
        </mxCell>
        <mxCell id="mx5_N-fvzEg2yM81KQJ--22" value="" style="endArrow=none;html=1;rounded=0;entryX=0.5;entryY=1;entryDx=0;entryDy=0;exitX=0.433;exitY=0.05;exitDx=0;exitDy=0;exitPerimeter=0;" parent="WIyWlLk6GJQsqaUBKTNV-1" source="mx5_N-fvzEg2yM81KQJ--0" target="mx5_N-fvzEg2yM81KQJ--18" edge="1">
          <mxGeometry width="50" height="50" relative="1" as="geometry">
            <mxPoint x="680" y="90" as="sourcePoint" />
            <mxPoint x="709" y="31" as="targetPoint" />
          </mxGeometry>
        </mxCell>
        <mxCell id="mx5_N-fvzEg2yM81KQJ--23" value="" style="endArrow=none;html=1;rounded=0;entryX=0.017;entryY=0.383;entryDx=0;entryDy=0;entryPerimeter=0;" parent="WIyWlLk6GJQsqaUBKTNV-1" target="mx5_N-fvzEg2yM81KQJ--20" edge="1">
          <mxGeometry width="50" height="50" relative="1" as="geometry">
            <mxPoint x="710" y="100" as="sourcePoint" />
            <mxPoint x="719" y="41" as="targetPoint" />
          </mxGeometry>
        </mxCell>
        <mxCell id="mx5_N-fvzEg2yM81KQJ--24" value="NIF" style="ellipse;whiteSpace=wrap;html=1;aspect=fixed;fillColor=#70C1FF;" parent="WIyWlLk6GJQsqaUBKTNV-1" vertex="1">
          <mxGeometry x="740" y="280" width="60" height="60" as="geometry" />
        </mxCell>
        <mxCell id="mx5_N-fvzEg2yM81KQJ--25" value="direccion" style="ellipse;whiteSpace=wrap;html=1;aspect=fixed;" parent="WIyWlLk6GJQsqaUBKTNV-1" vertex="1">
          <mxGeometry x="730" y="360" width="60" height="60" as="geometry" />
        </mxCell>
        <mxCell id="mx5_N-fvzEg2yM81KQJ--26" value="nombre" style="ellipse;whiteSpace=wrap;html=1;aspect=fixed;" parent="WIyWlLk6GJQsqaUBKTNV-1" vertex="1">
          <mxGeometry x="630" y="390" width="60" height="60" as="geometry" />
        </mxCell>
        <mxCell id="mx5_N-fvzEg2yM81KQJ--28" value="" style="endArrow=none;html=1;rounded=0;entryX=0.592;entryY=1;entryDx=0;entryDy=0;entryPerimeter=0;" parent="WIyWlLk6GJQsqaUBKTNV-1" target="mx5_N-fvzEg2yM81KQJ--1" edge="1">
          <mxGeometry width="50" height="50" relative="1" as="geometry">
            <mxPoint x="660" y="390" as="sourcePoint" />
            <mxPoint x="710" y="340" as="targetPoint" />
          </mxGeometry>
        </mxCell>
        <mxCell id="mx5_N-fvzEg2yM81KQJ--29" value="" style="endArrow=none;html=1;rounded=0;entryX=1;entryY=1;entryDx=0;entryDy=0;exitX=-0.05;exitY=0.35;exitDx=0;exitDy=0;exitPerimeter=0;" parent="WIyWlLk6GJQsqaUBKTNV-1" source="mx5_N-fvzEg2yM81KQJ--25" target="mx5_N-fvzEg2yM81KQJ--1" edge="1">
          <mxGeometry width="50" height="50" relative="1" as="geometry">
            <mxPoint x="670" y="400" as="sourcePoint" />
            <mxPoint x="671" y="370" as="targetPoint" />
          </mxGeometry>
        </mxCell>
        <mxCell id="mx5_N-fvzEg2yM81KQJ--30" value="" style="endArrow=none;html=1;rounded=0;entryX=1;entryY=0.5;entryDx=0;entryDy=0;exitX=0.05;exitY=0.75;exitDx=0;exitDy=0;exitPerimeter=0;" parent="WIyWlLk6GJQsqaUBKTNV-1" source="mx5_N-fvzEg2yM81KQJ--24" target="mx5_N-fvzEg2yM81KQJ--1" edge="1">
          <mxGeometry width="50" height="50" relative="1" as="geometry">
            <mxPoint x="737" y="391" as="sourcePoint" />
            <mxPoint x="720" y="370" as="targetPoint" />
          </mxGeometry>
        </mxCell>
        <mxCell id="Qxq4NSu53uqbjzMMRu9p-0" value="0,N" style="text;html=1;strokeColor=none;fillColor=none;align=center;verticalAlign=middle;whiteSpace=wrap;rounded=0;" parent="WIyWlLk6GJQsqaUBKTNV-1" vertex="1">
          <mxGeometry x="280" y="70" width="60" height="30" as="geometry" />
        </mxCell>
        <mxCell id="Qxq4NSu53uqbjzMMRu9p-1" value="0,M" style="text;html=1;strokeColor=none;fillColor=none;align=center;verticalAlign=middle;whiteSpace=wrap;rounded=0;" parent="WIyWlLk6GJQsqaUBKTNV-1" vertex="1">
          <mxGeometry x="530" y="100" width="60" height="30" as="geometry" />
        </mxCell>
        <mxCell id="Qxq4NSu53uqbjzMMRu9p-2" value="" style="endArrow=none;html=1;rounded=0;exitX=0.5;exitY=1;exitDx=0;exitDy=0;entryX=0.5;entryY=0;entryDx=0;entryDy=0;" parent="WIyWlLk6GJQsqaUBKTNV-1" source="mx5_N-fvzEg2yM81KQJ--0" target="mx5_N-fvzEg2yM81KQJ--2" edge="1">
          <mxGeometry width="50" height="50" relative="1" as="geometry">
            <mxPoint x="580" y="149" as="sourcePoint" />
            <mxPoint x="690" y="149" as="targetPoint" />
          </mxGeometry>
        </mxCell>
        <mxCell id="Qxq4NSu53uqbjzMMRu9p-3" value="" style="endArrow=none;html=1;rounded=0;exitX=0.5;exitY=1;exitDx=0;exitDy=0;entryX=0.5;entryY=0;entryDx=0;entryDy=0;" parent="WIyWlLk6GJQsqaUBKTNV-1" edge="1">
          <mxGeometry width="50" height="50" relative="1" as="geometry">
            <mxPoint x="650" y="260" as="sourcePoint" />
            <mxPoint x="650" y="320" as="targetPoint" />
          </mxGeometry>
        </mxCell>
        <mxCell id="Qxq4NSu53uqbjzMMRu9p-4" value="1,N" style="text;html=1;strokeColor=none;fillColor=none;align=center;verticalAlign=middle;whiteSpace=wrap;rounded=0;" parent="WIyWlLk6GJQsqaUBKTNV-1" vertex="1">
          <mxGeometry x="650" y="120" width="60" height="30" as="geometry" />
        </mxCell>
        <mxCell id="Qxq4NSu53uqbjzMMRu9p-5" value="1,1" style="text;html=1;strokeColor=none;fillColor=none;align=center;verticalAlign=middle;whiteSpace=wrap;rounded=0;" parent="WIyWlLk6GJQsqaUBKTNV-1" vertex="1">
          <mxGeometry x="590" y="290" width="60" height="30" as="geometry" />
        </mxCell>
        <mxCell id="Qxq4NSu53uqbjzMMRu9p-6" value="N:M" style="text;html=1;strokeColor=none;fillColor=none;align=center;verticalAlign=middle;whiteSpace=wrap;rounded=0;" parent="WIyWlLk6GJQsqaUBKTNV-1" vertex="1">
          <mxGeometry x="410" y="140" width="60" height="30" as="geometry" />
        </mxCell>
        <mxCell id="Qxq4NSu53uqbjzMMRu9p-7" value="1:N" style="text;html=1;strokeColor=none;fillColor=none;align=center;verticalAlign=middle;whiteSpace=wrap;rounded=0;" parent="WIyWlLk6GJQsqaUBKTNV-1" vertex="1">
          <mxGeometry x="560" y="205" width="60" height="30" as="geometry" />
        </mxCell>
        <mxCell id="Qxq4NSu53uqbjzMMRu9p-8" value="" style="shape=or;whiteSpace=wrap;html=1;" parent="WIyWlLk6GJQsqaUBKTNV-1" vertex="1">
          <mxGeometry x="364" width="50" height="50" as="geometry" />
        </mxCell>
        <mxCell id="Qxq4NSu53uqbjzMMRu9p-9" value="" style="shape=or;whiteSpace=wrap;html=1;direction=west;fillColor=#FFF566;" parent="WIyWlLk6GJQsqaUBKTNV-1" vertex="1">
          <mxGeometry x="314" width="50" height="50" as="geometry" />
        </mxCell>
        <mxCell id="Qxq4NSu53uqbjzMMRu9p-10" value="cod_productos_fk" style="text;html=1;strokeColor=none;fillColor=none;align=center;verticalAlign=middle;whiteSpace=wrap;rounded=0;" parent="WIyWlLk6GJQsqaUBKTNV-1" vertex="1">
          <mxGeometry x="334" y="10" width="60" height="30" as="geometry" />
        </mxCell>
        <mxCell id="Qxq4NSu53uqbjzMMRu9p-11" value="" style="shape=or;whiteSpace=wrap;html=1;" parent="WIyWlLk6GJQsqaUBKTNV-1" vertex="1">
          <mxGeometry x="510" width="40" height="50" as="geometry" />
        </mxCell>
        <mxCell id="Qxq4NSu53uqbjzMMRu9p-12" value="" style="shape=or;whiteSpace=wrap;html=1;direction=west;fillColor=#FFFF30;" parent="WIyWlLk6GJQsqaUBKTNV-1" vertex="1">
          <mxGeometry x="470" width="40" height="50" as="geometry" />
        </mxCell>
        <mxCell id="Qxq4NSu53uqbjzMMRu9p-13" value="dni_clientes_fk" style="text;html=1;strokeColor=none;fillColor=none;align=center;verticalAlign=middle;whiteSpace=wrap;rounded=0;" parent="WIyWlLk6GJQsqaUBKTNV-1" vertex="1">
          <mxGeometry x="480" y="10" width="60" height="30" as="geometry" />
        </mxCell>
        <mxCell id="Qxq4NSu53uqbjzMMRu9p-14" value="" style="endArrow=none;html=1;rounded=0;" parent="WIyWlLk6GJQsqaUBKTNV-1" source="WIyWlLk6GJQsqaUBKTNV-6" edge="1">
          <mxGeometry width="50" height="50" relative="1" as="geometry">
            <mxPoint x="310" y="100" as="sourcePoint" />
            <mxPoint x="360" y="50" as="targetPoint" />
          </mxGeometry>
        </mxCell>
        <mxCell id="Qxq4NSu53uqbjzMMRu9p-15" value="" style="endArrow=none;html=1;rounded=0;entryX=0.05;entryY=0;entryDx=0;entryDy=0;entryPerimeter=0;exitX=1;exitY=0;exitDx=0;exitDy=0;" parent="WIyWlLk6GJQsqaUBKTNV-1" source="WIyWlLk6GJQsqaUBKTNV-6" target="Qxq4NSu53uqbjzMMRu9p-12" edge="1">
          <mxGeometry width="50" height="50" relative="1" as="geometry">
            <mxPoint x="422" y="92" as="sourcePoint" />
            <mxPoint x="370" y="60" as="targetPoint" />
          </mxGeometry>
        </mxCell>
        <mxCell id="Qxq4NSu53uqbjzMMRu9p-20" value="" style="shape=or;whiteSpace=wrap;html=1;" parent="WIyWlLk6GJQsqaUBKTNV-1" vertex="1">
          <mxGeometry x="760" y="150" width="50" height="50" as="geometry" />
        </mxCell>
        <mxCell id="Qxq4NSu53uqbjzMMRu9p-21" value="" style="shape=or;whiteSpace=wrap;html=1;direction=west;fillColor=#FFFF30;" parent="WIyWlLk6GJQsqaUBKTNV-1" vertex="1">
          <mxGeometry x="710" y="150" width="50" height="50" as="geometry" />
        </mxCell>
        <mxCell id="Qxq4NSu53uqbjzMMRu9p-22" value="nif_proveedor_fk" style="text;html=1;strokeColor=none;fillColor=none;align=center;verticalAlign=middle;whiteSpace=wrap;rounded=0;" parent="WIyWlLk6GJQsqaUBKTNV-1" vertex="1">
          <mxGeometry x="730" y="160" width="60" height="30" as="geometry" />
        </mxCell>
        <mxCell id="Qxq4NSu53uqbjzMMRu9p-23" value="" style="endArrow=none;html=1;rounded=0;exitX=0.04;exitY=1;exitDx=0;exitDy=0;exitPerimeter=0;entryX=0.833;entryY=0;entryDx=0;entryDy=0;entryPerimeter=0;" parent="WIyWlLk6GJQsqaUBKTNV-1" source="Qxq4NSu53uqbjzMMRu9p-21" target="Qxq4NSu53uqbjzMMRu9p-4" edge="1">
          <mxGeometry width="50" height="50" relative="1" as="geometry">
            <mxPoint x="510" y="210" as="sourcePoint" />
            <mxPoint x="710" y="120" as="targetPoint" />
          </mxGeometry>
        </mxCell>
        <mxCell id="0E80pPRpKlRtecK1wByP-0" value="id" style="ellipse;whiteSpace=wrap;html=1;aspect=fixed;fillColor=#4FBEFF;" parent="WIyWlLk6GJQsqaUBKTNV-1" vertex="1">
          <mxGeometry x="334" y="120" width="60" height="60" as="geometry" />
        </mxCell>
        <mxCell id="0E80pPRpKlRtecK1wByP-1" value="" style="endArrow=none;html=1;rounded=0;exitX=0.967;exitY=0.4;exitDx=0;exitDy=0;exitPerimeter=0;entryX=0;entryY=1;entryDx=0;entryDy=0;" parent="WIyWlLk6GJQsqaUBKTNV-1" source="0E80pPRpKlRtecK1wByP-0" target="WIyWlLk6GJQsqaUBKTNV-6" edge="1">
          <mxGeometry width="50" height="50" relative="1" as="geometry">
            <mxPoint x="510" y="200" as="sourcePoint" />
            <mxPoint x="560" y="150" as="targetPoint" />
          </mxGeometry>
        </mxCell>
      </root>
    </mxGraphModel>
  </diagram>
  <diagram id="QH_lPs5BEpQbvO5fbCUb" name="Página-2">
    <mxGraphModel dx="1272" dy="1675" grid="1" gridSize="10" guides="1" tooltips="1" connect="1" arrows="1" fold="1" page="1" pageScale="1" pageWidth="827" pageHeight="1169" math="0" shadow="0">
      <root>
        <mxCell id="0" />
        <mxCell id="1" parent="0" />
        <mxCell id="wLg9ag0Lhp2ejEAUh5uP-1" value="Clientes" style="rounded=1;whiteSpace=wrap;html=1;fontSize=12;glass=0;strokeWidth=1;shadow=0;" parent="1" vertex="1">
          <mxGeometry x="160" y="80" width="120" height="40" as="geometry" />
        </mxCell>
        <mxCell id="wLg9ag0Lhp2ejEAUh5uP-2" value="Comprar" style="rhombus;whiteSpace=wrap;html=1;shadow=0;fontFamily=Helvetica;fontSize=12;align=center;strokeWidth=1;spacing=6;spacingTop=-4;" parent="1" vertex="1">
          <mxGeometry x="390" y="60" width="100" height="80" as="geometry" />
        </mxCell>
        <mxCell id="wLg9ag0Lhp2ejEAUh5uP-3" value="Coche" style="rounded=1;whiteSpace=wrap;html=1;fontSize=12;glass=0;strokeWidth=1;shadow=0;" parent="1" vertex="1">
          <mxGeometry x="590" y="80" width="120" height="40" as="geometry" />
        </mxCell>
        <mxCell id="wLg9ag0Lhp2ejEAUh5uP-4" value="Revision" style="rounded=1;whiteSpace=wrap;html=1;fontSize=12;glass=0;strokeWidth=1;shadow=0;" parent="1" vertex="1">
          <mxGeometry x="590" y="320" width="120" height="40" as="geometry" />
        </mxCell>
        <mxCell id="wLg9ag0Lhp2ejEAUh5uP-5" value="Realizar" style="rhombus;whiteSpace=wrap;html=1;shadow=0;fontFamily=Helvetica;fontSize=12;align=center;strokeWidth=1;spacing=6;spacingTop=-4;" parent="1" vertex="1">
          <mxGeometry x="600" y="180" width="100" height="80" as="geometry" />
        </mxCell>
        <mxCell id="wLg9ag0Lhp2ejEAUh5uP-6" value="nombre" style="ellipse;whiteSpace=wrap;html=1;aspect=fixed;" parent="1" vertex="1">
          <mxGeometry x="120" width="60" height="60" as="geometry" />
        </mxCell>
        <mxCell id="wLg9ag0Lhp2ejEAUh5uP-7" value="direccion" style="ellipse;whiteSpace=wrap;html=1;aspect=fixed;" parent="1" vertex="1">
          <mxGeometry x="220" width="60" height="60" as="geometry" />
        </mxCell>
        <mxCell id="wLg9ag0Lhp2ejEAUh5uP-8" value="id" style="ellipse;whiteSpace=wrap;html=1;aspect=fixed;fillColor=#4FBEFF;" parent="1" vertex="1">
          <mxGeometry x="60" y="70" width="60" height="60" as="geometry" />
        </mxCell>
        <mxCell id="wLg9ag0Lhp2ejEAUh5uP-9" value="ciudad" style="ellipse;whiteSpace=wrap;html=1;aspect=fixed;" parent="1" vertex="1">
          <mxGeometry x="120" y="150" width="60" height="60" as="geometry" />
        </mxCell>
        <mxCell id="wLg9ag0Lhp2ejEAUh5uP-10" value="telefono" style="ellipse;whiteSpace=wrap;html=1;aspect=fixed;" parent="1" vertex="1">
          <mxGeometry x="210" y="150" width="60" height="60" as="geometry" />
        </mxCell>
        <mxCell id="wLg9ag0Lhp2ejEAUh5uP-11" value="" style="endArrow=none;html=1;rounded=0;" parent="1" target="wLg9ag0Lhp2ejEAUh5uP-1" edge="1">
          <mxGeometry width="50" height="50" relative="1" as="geometry">
            <mxPoint x="160" y="150" as="sourcePoint" />
            <mxPoint x="210" y="100" as="targetPoint" />
          </mxGeometry>
        </mxCell>
        <mxCell id="wLg9ag0Lhp2ejEAUh5uP-12" value="" style="endArrow=none;html=1;rounded=0;entryX=0.567;entryY=1.05;entryDx=0;entryDy=0;entryPerimeter=0;exitX=0.5;exitY=0;exitDx=0;exitDy=0;" parent="1" source="wLg9ag0Lhp2ejEAUh5uP-10" target="wLg9ag0Lhp2ejEAUh5uP-1" edge="1">
          <mxGeometry width="50" height="50" relative="1" as="geometry">
            <mxPoint x="170" y="160" as="sourcePoint" />
            <mxPoint x="206" y="130" as="targetPoint" />
          </mxGeometry>
        </mxCell>
        <mxCell id="wLg9ag0Lhp2ejEAUh5uP-13" value="" style="endArrow=none;html=1;rounded=0;entryX=0;entryY=0.5;entryDx=0;entryDy=0;exitX=1;exitY=0.5;exitDx=0;exitDy=0;" parent="1" source="wLg9ag0Lhp2ejEAUh5uP-8" target="wLg9ag0Lhp2ejEAUh5uP-1" edge="1">
          <mxGeometry width="50" height="50" relative="1" as="geometry">
            <mxPoint x="180" y="170" as="sourcePoint" />
            <mxPoint x="216" y="140" as="targetPoint" />
          </mxGeometry>
        </mxCell>
        <mxCell id="wLg9ag0Lhp2ejEAUh5uP-14" value="" style="endArrow=none;html=1;rounded=0;entryX=0.25;entryY=0;entryDx=0;entryDy=0;" parent="1" source="wLg9ag0Lhp2ejEAUh5uP-6" target="wLg9ag0Lhp2ejEAUh5uP-1" edge="1">
          <mxGeometry width="50" height="50" relative="1" as="geometry">
            <mxPoint x="130" y="110" as="sourcePoint" />
            <mxPoint x="170" y="110" as="targetPoint" />
          </mxGeometry>
        </mxCell>
        <mxCell id="wLg9ag0Lhp2ejEAUh5uP-15" value="" style="endArrow=none;html=1;rounded=0;entryX=0.5;entryY=0;entryDx=0;entryDy=0;exitX=0;exitY=1;exitDx=0;exitDy=0;" parent="1" source="wLg9ag0Lhp2ejEAUh5uP-7" target="wLg9ag0Lhp2ejEAUh5uP-1" edge="1">
          <mxGeometry width="50" height="50" relative="1" as="geometry">
            <mxPoint x="179" y="63" as="sourcePoint" />
            <mxPoint x="200" y="90" as="targetPoint" />
          </mxGeometry>
        </mxCell>
        <mxCell id="wLg9ag0Lhp2ejEAUh5uP-16" value="" style="endArrow=none;html=1;rounded=0;exitX=1;exitY=0.5;exitDx=0;exitDy=0;entryX=0;entryY=0.5;entryDx=0;entryDy=0;" parent="1" source="wLg9ag0Lhp2ejEAUh5uP-1" target="wLg9ag0Lhp2ejEAUh5uP-2" edge="1">
          <mxGeometry width="50" height="50" relative="1" as="geometry">
            <mxPoint x="390" y="230" as="sourcePoint" />
            <mxPoint x="440" y="180" as="targetPoint" />
          </mxGeometry>
        </mxCell>
        <mxCell id="wLg9ag0Lhp2ejEAUh5uP-17" value="" style="endArrow=none;html=1;rounded=0;entryX=0;entryY=0.5;entryDx=0;entryDy=0;" parent="1" edge="1">
          <mxGeometry width="50" height="50" relative="1" as="geometry">
            <mxPoint x="490" y="100" as="sourcePoint" />
            <mxPoint x="590" y="99.5" as="targetPoint" />
          </mxGeometry>
        </mxCell>
        <mxCell id="wLg9ag0Lhp2ejEAUh5uP-18" value="marca" style="ellipse;whiteSpace=wrap;html=1;aspect=fixed;" parent="1" vertex="1">
          <mxGeometry x="560" y="-10" width="60" height="60" as="geometry" />
        </mxCell>
        <mxCell id="wLg9ag0Lhp2ejEAUh5uP-19" value="modelo" style="ellipse;whiteSpace=wrap;html=1;aspect=fixed;" parent="1" vertex="1">
          <mxGeometry x="740" y="80" width="60" height="60" as="geometry" />
        </mxCell>
        <mxCell id="wLg9ag0Lhp2ejEAUh5uP-20" value="" style="endArrow=none;html=1;rounded=0;entryX=0.5;entryY=1;entryDx=0;entryDy=0;" parent="1" target="XbB5zDtxkDg1MS3Tlshv-1" edge="1">
          <mxGeometry width="50" height="50" relative="1" as="geometry">
            <mxPoint x="670" y="80" as="sourcePoint" />
            <mxPoint x="699" y="21" as="targetPoint" />
          </mxGeometry>
        </mxCell>
        <mxCell id="wLg9ag0Lhp2ejEAUh5uP-21" value="" style="endArrow=none;html=1;rounded=0;entryX=0.5;entryY=1;entryDx=0;entryDy=0;exitX=0.433;exitY=0.05;exitDx=0;exitDy=0;exitPerimeter=0;" parent="1" source="wLg9ag0Lhp2ejEAUh5uP-3" target="wLg9ag0Lhp2ejEAUh5uP-18" edge="1">
          <mxGeometry width="50" height="50" relative="1" as="geometry">
            <mxPoint x="680" y="90" as="sourcePoint" />
            <mxPoint x="709" y="31" as="targetPoint" />
          </mxGeometry>
        </mxCell>
        <mxCell id="wLg9ag0Lhp2ejEAUh5uP-22" value="" style="endArrow=none;html=1;rounded=0;entryX=0.017;entryY=0.383;entryDx=0;entryDy=0;entryPerimeter=0;" parent="1" target="wLg9ag0Lhp2ejEAUh5uP-19" edge="1">
          <mxGeometry width="50" height="50" relative="1" as="geometry">
            <mxPoint x="710" y="100" as="sourcePoint" />
            <mxPoint x="719" y="41" as="targetPoint" />
          </mxGeometry>
        </mxCell>
        <mxCell id="wLg9ag0Lhp2ejEAUh5uP-23" value="id" style="ellipse;whiteSpace=wrap;html=1;aspect=fixed;fillColor=#70C1FF;" parent="1" vertex="1">
          <mxGeometry x="740" y="280" width="60" height="60" as="geometry" />
        </mxCell>
        <mxCell id="wLg9ag0Lhp2ejEAUh5uP-24" value="cambio de filtro" style="ellipse;whiteSpace=wrap;html=1;aspect=fixed;" parent="1" vertex="1">
          <mxGeometry x="730" y="360" width="60" height="60" as="geometry" />
        </mxCell>
        <mxCell id="wLg9ag0Lhp2ejEAUh5uP-25" value="cambio de aceite" style="ellipse;whiteSpace=wrap;html=1;aspect=fixed;" parent="1" vertex="1">
          <mxGeometry x="630" y="390" width="60" height="60" as="geometry" />
        </mxCell>
        <mxCell id="wLg9ag0Lhp2ejEAUh5uP-26" value="" style="endArrow=none;html=1;rounded=0;entryX=0.592;entryY=1;entryDx=0;entryDy=0;entryPerimeter=0;" parent="1" target="wLg9ag0Lhp2ejEAUh5uP-4" edge="1">
          <mxGeometry width="50" height="50" relative="1" as="geometry">
            <mxPoint x="660" y="390" as="sourcePoint" />
            <mxPoint x="710" y="340" as="targetPoint" />
          </mxGeometry>
        </mxCell>
        <mxCell id="wLg9ag0Lhp2ejEAUh5uP-27" value="" style="endArrow=none;html=1;rounded=0;entryX=0.892;entryY=1;entryDx=0;entryDy=0;entryPerimeter=0;" parent="1" source="wLg9ag0Lhp2ejEAUh5uP-24" target="wLg9ag0Lhp2ejEAUh5uP-4" edge="1">
          <mxGeometry width="50" height="50" relative="1" as="geometry">
            <mxPoint x="670" y="400" as="sourcePoint" />
            <mxPoint x="671" y="370" as="targetPoint" />
          </mxGeometry>
        </mxCell>
        <mxCell id="wLg9ag0Lhp2ejEAUh5uP-28" value="" style="endArrow=none;html=1;rounded=0;entryX=1;entryY=0.5;entryDx=0;entryDy=0;exitX=0.05;exitY=0.75;exitDx=0;exitDy=0;exitPerimeter=0;" parent="1" source="wLg9ag0Lhp2ejEAUh5uP-23" target="wLg9ag0Lhp2ejEAUh5uP-4" edge="1">
          <mxGeometry width="50" height="50" relative="1" as="geometry">
            <mxPoint x="737" y="391" as="sourcePoint" />
            <mxPoint x="720" y="370" as="targetPoint" />
          </mxGeometry>
        </mxCell>
        <mxCell id="wLg9ag0Lhp2ejEAUh5uP-29" value="0,1" style="text;html=1;strokeColor=none;fillColor=none;align=center;verticalAlign=middle;whiteSpace=wrap;rounded=0;" parent="1" vertex="1">
          <mxGeometry x="280" y="70" width="60" height="30" as="geometry" />
        </mxCell>
        <mxCell id="wLg9ag0Lhp2ejEAUh5uP-30" value="1,N" style="text;html=1;strokeColor=none;fillColor=none;align=center;verticalAlign=middle;whiteSpace=wrap;rounded=0;" parent="1" vertex="1">
          <mxGeometry x="530" y="100" width="60" height="30" as="geometry" />
        </mxCell>
        <mxCell id="wLg9ag0Lhp2ejEAUh5uP-31" value="" style="endArrow=none;html=1;rounded=0;exitX=0.5;exitY=1;exitDx=0;exitDy=0;entryX=0.5;entryY=0;entryDx=0;entryDy=0;" parent="1" source="wLg9ag0Lhp2ejEAUh5uP-3" target="wLg9ag0Lhp2ejEAUh5uP-5" edge="1">
          <mxGeometry width="50" height="50" relative="1" as="geometry">
            <mxPoint x="580" y="149" as="sourcePoint" />
            <mxPoint x="690" y="149" as="targetPoint" />
          </mxGeometry>
        </mxCell>
        <mxCell id="wLg9ag0Lhp2ejEAUh5uP-32" value="" style="endArrow=none;html=1;rounded=0;exitX=0.5;exitY=1;exitDx=0;exitDy=0;entryX=0.5;entryY=0;entryDx=0;entryDy=0;" parent="1" edge="1">
          <mxGeometry width="50" height="50" relative="1" as="geometry">
            <mxPoint x="650" y="260" as="sourcePoint" />
            <mxPoint x="650" y="320" as="targetPoint" />
          </mxGeometry>
        </mxCell>
        <mxCell id="wLg9ag0Lhp2ejEAUh5uP-33" value="0,1" style="text;html=1;strokeColor=none;fillColor=none;align=center;verticalAlign=middle;whiteSpace=wrap;rounded=0;" parent="1" vertex="1">
          <mxGeometry x="650" y="120" width="60" height="30" as="geometry" />
        </mxCell>
        <mxCell id="wLg9ag0Lhp2ejEAUh5uP-34" value="0,M" style="text;html=1;strokeColor=none;fillColor=none;align=center;verticalAlign=middle;whiteSpace=wrap;rounded=0;" parent="1" vertex="1">
          <mxGeometry x="590" y="290" width="60" height="30" as="geometry" />
        </mxCell>
        <mxCell id="wLg9ag0Lhp2ejEAUh5uP-35" value="1:N" style="text;html=1;strokeColor=none;fillColor=none;align=center;verticalAlign=middle;whiteSpace=wrap;rounded=0;" parent="1" vertex="1">
          <mxGeometry x="410" y="140" width="60" height="30" as="geometry" />
        </mxCell>
        <mxCell id="wLg9ag0Lhp2ejEAUh5uP-36" value="1:N" style="text;html=1;strokeColor=none;fillColor=none;align=center;verticalAlign=middle;whiteSpace=wrap;rounded=0;" parent="1" vertex="1">
          <mxGeometry x="550" y="205" width="60" height="30" as="geometry" />
        </mxCell>
        <mxCell id="wLg9ag0Lhp2ejEAUh5uP-45" value="" style="shape=or;whiteSpace=wrap;html=1;" parent="1" vertex="1">
          <mxGeometry x="760" y="150" width="50" height="50" as="geometry" />
        </mxCell>
        <mxCell id="wLg9ag0Lhp2ejEAUh5uP-46" value="" style="shape=or;whiteSpace=wrap;html=1;direction=west;fillColor=#FFFF30;" parent="1" vertex="1">
          <mxGeometry x="710" y="150" width="50" height="50" as="geometry" />
        </mxCell>
        <mxCell id="wLg9ag0Lhp2ejEAUh5uP-47" value="id_clientes_fk" style="text;html=1;strokeColor=none;fillColor=none;align=center;verticalAlign=middle;whiteSpace=wrap;rounded=0;" parent="1" vertex="1">
          <mxGeometry x="730" y="160" width="60" height="30" as="geometry" />
        </mxCell>
        <mxCell id="XbB5zDtxkDg1MS3Tlshv-1" value="matricula" style="ellipse;whiteSpace=wrap;html=1;aspect=fixed;fillColor=#4FB3FF;" parent="1" vertex="1">
          <mxGeometry x="630" y="-30" width="60" height="60" as="geometry" />
        </mxCell>
        <mxCell id="XbB5zDtxkDg1MS3Tlshv-2" value="NIF" style="ellipse;whiteSpace=wrap;html=1;aspect=fixed;" parent="1" vertex="1">
          <mxGeometry x="290" y="130" width="60" height="60" as="geometry" />
        </mxCell>
        <mxCell id="XbB5zDtxkDg1MS3Tlshv-3" value="" style="endArrow=none;html=1;rounded=0;exitX=0;exitY=0;exitDx=0;exitDy=0;" parent="1" source="XbB5zDtxkDg1MS3Tlshv-2" target="wLg9ag0Lhp2ejEAUh5uP-1" edge="1">
          <mxGeometry width="50" height="50" relative="1" as="geometry">
            <mxPoint x="250" y="160" as="sourcePoint" />
            <mxPoint x="238" y="132" as="targetPoint" />
          </mxGeometry>
        </mxCell>
        <mxCell id="XbB5zDtxkDg1MS3Tlshv-4" value="color" style="ellipse;whiteSpace=wrap;html=1;aspect=fixed;" parent="1" vertex="1">
          <mxGeometry x="705" y="-30" width="60" height="60" as="geometry" />
        </mxCell>
        <mxCell id="XbB5zDtxkDg1MS3Tlshv-5" value="precio venta" style="ellipse;whiteSpace=wrap;html=1;aspect=fixed;" parent="1" vertex="1">
          <mxGeometry x="765" y="10" width="60" height="60" as="geometry" />
        </mxCell>
        <mxCell id="XbB5zDtxkDg1MS3Tlshv-6" value="" style="endArrow=none;html=1;rounded=0;entryX=0.333;entryY=0.95;entryDx=0;entryDy=0;entryPerimeter=0;exitX=0.75;exitY=0;exitDx=0;exitDy=0;" parent="1" source="wLg9ag0Lhp2ejEAUh5uP-3" target="XbB5zDtxkDg1MS3Tlshv-4" edge="1">
          <mxGeometry width="50" height="50" relative="1" as="geometry">
            <mxPoint x="680" y="90" as="sourcePoint" />
            <mxPoint x="670" y="40" as="targetPoint" />
          </mxGeometry>
        </mxCell>
        <mxCell id="XbB5zDtxkDg1MS3Tlshv-7" value="" style="endArrow=none;html=1;rounded=0;exitX=1;exitY=0.25;exitDx=0;exitDy=0;" parent="1" source="wLg9ag0Lhp2ejEAUh5uP-3" target="XbB5zDtxkDg1MS3Tlshv-5" edge="1">
          <mxGeometry width="50" height="50" relative="1" as="geometry">
            <mxPoint x="690" y="100" as="sourcePoint" />
            <mxPoint x="680" y="50" as="targetPoint" />
          </mxGeometry>
        </mxCell>
        <mxCell id="XbB5zDtxkDg1MS3Tlshv-8" value="cambio de frenos" style="ellipse;whiteSpace=wrap;html=1;aspect=fixed;" parent="1" vertex="1">
          <mxGeometry x="550" y="390" width="60" height="60" as="geometry" />
        </mxCell>
        <mxCell id="XbB5zDtxkDg1MS3Tlshv-9" value="" style="endArrow=none;html=1;rounded=0;entryX=0.5;entryY=0;entryDx=0;entryDy=0;exitX=0.25;exitY=1;exitDx=0;exitDy=0;" parent="1" source="wLg9ag0Lhp2ejEAUh5uP-4" target="XbB5zDtxkDg1MS3Tlshv-8" edge="1">
          <mxGeometry width="50" height="50" relative="1" as="geometry">
            <mxPoint x="743" y="387" as="sourcePoint" />
            <mxPoint x="707" y="370" as="targetPoint" />
          </mxGeometry>
        </mxCell>
        <mxCell id="XbB5zDtxkDg1MS3Tlshv-18" value="id" style="ellipse;whiteSpace=wrap;html=1;aspect=fixed;fillColor=#70C1FF;" parent="1" vertex="1">
          <mxGeometry x="730" y="210" width="40" height="40" as="geometry" />
        </mxCell>
        <mxCell id="XbB5zDtxkDg1MS3Tlshv-19" value="" style="endArrow=none;html=1;rounded=0;exitX=1;exitY=1;exitDx=0;exitDy=0;entryX=-0.025;entryY=0.675;entryDx=0;entryDy=0;entryPerimeter=0;" parent="1" source="wLg9ag0Lhp2ejEAUh5uP-5" target="XbB5zDtxkDg1MS3Tlshv-18" edge="1">
          <mxGeometry width="50" height="50" relative="1" as="geometry">
            <mxPoint x="635" y="250" as="sourcePoint" />
            <mxPoint x="610" y="285" as="targetPoint" />
          </mxGeometry>
        </mxCell>
        <mxCell id="NBn2-O69Uefz-lsd1J9A-1" value="" style="endArrow=none;html=1;rounded=0;exitX=0.04;exitY=1;exitDx=0;exitDy=0;exitPerimeter=0;entryX=0.833;entryY=0;entryDx=0;entryDy=0;entryPerimeter=0;" edge="1" parent="1">
          <mxGeometry width="50" height="50" relative="1" as="geometry">
            <mxPoint x="758" y="150" as="sourcePoint" />
            <mxPoint x="700" y="120" as="targetPoint" />
          </mxGeometry>
        </mxCell>
        <mxCell id="NBn2-O69Uefz-lsd1J9A-5" value="" style="shape=or;whiteSpace=wrap;html=1;" vertex="1" parent="1">
          <mxGeometry x="510" y="310" width="50" height="50" as="geometry" />
        </mxCell>
        <mxCell id="NBn2-O69Uefz-lsd1J9A-6" value="" style="shape=or;whiteSpace=wrap;html=1;direction=west;fillColor=#FFFF30;" vertex="1" parent="1">
          <mxGeometry x="460" y="310" width="50" height="50" as="geometry" />
        </mxCell>
        <mxCell id="NBn2-O69Uefz-lsd1J9A-7" value="id_coche_fk" style="text;html=1;strokeColor=none;fillColor=none;align=center;verticalAlign=middle;whiteSpace=wrap;rounded=0;" vertex="1" parent="1">
          <mxGeometry x="480" y="320" width="60" height="30" as="geometry" />
        </mxCell>
        <mxCell id="NBn2-O69Uefz-lsd1J9A-8" value="" style="endArrow=none;html=1;rounded=0;exitX=0.04;exitY=1;exitDx=0;exitDy=0;exitPerimeter=0;entryX=1;entryY=0.5;entryDx=0;entryDy=0;entryPerimeter=0;" edge="1" parent="1" target="NBn2-O69Uefz-lsd1J9A-5">
          <mxGeometry width="50" height="50" relative="1" as="geometry">
            <mxPoint x="590" y="340" as="sourcePoint" />
            <mxPoint x="532" y="310" as="targetPoint" />
          </mxGeometry>
        </mxCell>
      </root>
    </mxGraphModel>
  </diagram>
  <diagram id="r9niHhJdQ9T2ywm9aoq0" name="Página-3">
    <mxGraphModel dx="1272" dy="1675" grid="1" gridSize="10" guides="1" tooltips="1" connect="1" arrows="1" fold="1" page="1" pageScale="1" pageWidth="827" pageHeight="1169" math="0" shadow="0">
      <root>
        <mxCell id="0" />
        <mxCell id="1" parent="0" />
        <mxCell id="Jmu6xvJF3uU6ScUqE4Zg-1" value="Clientes" style="rounded=1;whiteSpace=wrap;html=1;fontSize=12;glass=0;strokeWidth=1;shadow=0;" vertex="1" parent="1">
          <mxGeometry x="160" y="80" width="120" height="40" as="geometry" />
        </mxCell>
        <mxCell id="Jmu6xvJF3uU6ScUqE4Zg-2" value="Comprar" style="rhombus;whiteSpace=wrap;html=1;shadow=0;fontFamily=Helvetica;fontSize=12;align=center;strokeWidth=1;spacing=6;spacingTop=-4;" vertex="1" parent="1">
          <mxGeometry x="390" y="60" width="100" height="80" as="geometry" />
        </mxCell>
        <mxCell id="Jmu6xvJF3uU6ScUqE4Zg-3" value="Productos" style="rounded=1;whiteSpace=wrap;html=1;fontSize=12;glass=0;strokeWidth=1;shadow=0;" vertex="1" parent="1">
          <mxGeometry x="590" y="80" width="120" height="40" as="geometry" />
        </mxCell>
        <mxCell id="Jmu6xvJF3uU6ScUqE4Zg-4" value="Proveedor" style="rounded=1;whiteSpace=wrap;html=1;fontSize=12;glass=0;strokeWidth=1;shadow=0;" vertex="1" parent="1">
          <mxGeometry x="590" y="320" width="120" height="40" as="geometry" />
        </mxCell>
        <mxCell id="Jmu6xvJF3uU6ScUqE4Zg-5" value="suministrar" style="rhombus;whiteSpace=wrap;html=1;shadow=0;fontFamily=Helvetica;fontSize=12;align=center;strokeWidth=1;spacing=6;spacingTop=-4;" vertex="1" parent="1">
          <mxGeometry x="600" y="180" width="100" height="80" as="geometry" />
        </mxCell>
        <mxCell id="Jmu6xvJF3uU6ScUqE4Zg-6" value="nombre" style="ellipse;whiteSpace=wrap;html=1;aspect=fixed;" vertex="1" parent="1">
          <mxGeometry x="120" width="60" height="60" as="geometry" />
        </mxCell>
        <mxCell id="Jmu6xvJF3uU6ScUqE4Zg-7" value="apellido" style="ellipse;whiteSpace=wrap;html=1;aspect=fixed;" vertex="1" parent="1">
          <mxGeometry x="220" width="60" height="60" as="geometry" />
        </mxCell>
        <mxCell id="Jmu6xvJF3uU6ScUqE4Zg-8" value="id" style="ellipse;whiteSpace=wrap;html=1;aspect=fixed;fillColor=#4FBEFF;" vertex="1" parent="1">
          <mxGeometry x="60" y="70" width="60" height="60" as="geometry" />
        </mxCell>
        <mxCell id="Jmu6xvJF3uU6ScUqE4Zg-9" value="telefono" style="ellipse;whiteSpace=wrap;html=1;aspect=fixed;" vertex="1" parent="1">
          <mxGeometry x="120" y="150" width="60" height="60" as="geometry" />
        </mxCell>
        <mxCell id="Jmu6xvJF3uU6ScUqE4Zg-10" value="direccion" style="ellipse;whiteSpace=wrap;html=1;aspect=fixed;" vertex="1" parent="1">
          <mxGeometry x="210" y="150" width="60" height="60" as="geometry" />
        </mxCell>
        <mxCell id="Jmu6xvJF3uU6ScUqE4Zg-11" value="" style="endArrow=none;html=1;rounded=0;" edge="1" parent="1" target="Jmu6xvJF3uU6ScUqE4Zg-1">
          <mxGeometry width="50" height="50" relative="1" as="geometry">
            <mxPoint x="160" y="150" as="sourcePoint" />
            <mxPoint x="210" y="100" as="targetPoint" />
          </mxGeometry>
        </mxCell>
        <mxCell id="Jmu6xvJF3uU6ScUqE4Zg-12" value="" style="endArrow=none;html=1;rounded=0;entryX=0.567;entryY=1.05;entryDx=0;entryDy=0;entryPerimeter=0;exitX=0.5;exitY=0;exitDx=0;exitDy=0;" edge="1" parent="1" source="Jmu6xvJF3uU6ScUqE4Zg-10" target="Jmu6xvJF3uU6ScUqE4Zg-1">
          <mxGeometry width="50" height="50" relative="1" as="geometry">
            <mxPoint x="170" y="160" as="sourcePoint" />
            <mxPoint x="206" y="130" as="targetPoint" />
          </mxGeometry>
        </mxCell>
        <mxCell id="Jmu6xvJF3uU6ScUqE4Zg-13" value="" style="endArrow=none;html=1;rounded=0;entryX=0;entryY=0.5;entryDx=0;entryDy=0;exitX=1;exitY=0.5;exitDx=0;exitDy=0;" edge="1" parent="1" source="Jmu6xvJF3uU6ScUqE4Zg-8" target="Jmu6xvJF3uU6ScUqE4Zg-1">
          <mxGeometry width="50" height="50" relative="1" as="geometry">
            <mxPoint x="180" y="170" as="sourcePoint" />
            <mxPoint x="216" y="140" as="targetPoint" />
          </mxGeometry>
        </mxCell>
        <mxCell id="Jmu6xvJF3uU6ScUqE4Zg-14" value="" style="endArrow=none;html=1;rounded=0;entryX=0.25;entryY=0;entryDx=0;entryDy=0;" edge="1" parent="1" source="Jmu6xvJF3uU6ScUqE4Zg-6" target="Jmu6xvJF3uU6ScUqE4Zg-1">
          <mxGeometry width="50" height="50" relative="1" as="geometry">
            <mxPoint x="130" y="110" as="sourcePoint" />
            <mxPoint x="170" y="110" as="targetPoint" />
          </mxGeometry>
        </mxCell>
        <mxCell id="Jmu6xvJF3uU6ScUqE4Zg-15" value="" style="endArrow=none;html=1;rounded=0;entryX=0.5;entryY=0;entryDx=0;entryDy=0;exitX=0;exitY=1;exitDx=0;exitDy=0;" edge="1" parent="1" source="Jmu6xvJF3uU6ScUqE4Zg-7" target="Jmu6xvJF3uU6ScUqE4Zg-1">
          <mxGeometry width="50" height="50" relative="1" as="geometry">
            <mxPoint x="179" y="63" as="sourcePoint" />
            <mxPoint x="200" y="90" as="targetPoint" />
          </mxGeometry>
        </mxCell>
        <mxCell id="Jmu6xvJF3uU6ScUqE4Zg-16" value="" style="endArrow=none;html=1;rounded=0;exitX=1;exitY=0.5;exitDx=0;exitDy=0;entryX=0;entryY=0.5;entryDx=0;entryDy=0;" edge="1" parent="1" source="Jmu6xvJF3uU6ScUqE4Zg-1" target="Jmu6xvJF3uU6ScUqE4Zg-2">
          <mxGeometry width="50" height="50" relative="1" as="geometry">
            <mxPoint x="390" y="230" as="sourcePoint" />
            <mxPoint x="440" y="180" as="targetPoint" />
          </mxGeometry>
        </mxCell>
        <mxCell id="Jmu6xvJF3uU6ScUqE4Zg-17" value="" style="endArrow=none;html=1;rounded=0;entryX=0;entryY=0.5;entryDx=0;entryDy=0;" edge="1" parent="1">
          <mxGeometry width="50" height="50" relative="1" as="geometry">
            <mxPoint x="490" y="100" as="sourcePoint" />
            <mxPoint x="590" y="99.5" as="targetPoint" />
          </mxGeometry>
        </mxCell>
        <mxCell id="Jmu6xvJF3uU6ScUqE4Zg-18" value="descripcion" style="ellipse;whiteSpace=wrap;html=1;aspect=fixed;" vertex="1" parent="1">
          <mxGeometry x="590" y="-20" width="60" height="60" as="geometry" />
        </mxCell>
        <mxCell id="Jmu6xvJF3uU6ScUqE4Zg-19" value="codigo" style="ellipse;whiteSpace=wrap;html=1;aspect=fixed;fillColor=#4FB3FF;" vertex="1" parent="1">
          <mxGeometry x="690" y="-30" width="60" height="60" as="geometry" />
        </mxCell>
        <mxCell id="Jmu6xvJF3uU6ScUqE4Zg-20" value="precio" style="ellipse;whiteSpace=wrap;html=1;aspect=fixed;" vertex="1" parent="1">
          <mxGeometry x="740" y="80" width="60" height="60" as="geometry" />
        </mxCell>
        <mxCell id="Jmu6xvJF3uU6ScUqE4Zg-21" value="" style="endArrow=none;html=1;rounded=0;entryX=0;entryY=1;entryDx=0;entryDy=0;" edge="1" parent="1" target="Jmu6xvJF3uU6ScUqE4Zg-19">
          <mxGeometry width="50" height="50" relative="1" as="geometry">
            <mxPoint x="670" y="80" as="sourcePoint" />
            <mxPoint x="720" y="30" as="targetPoint" />
          </mxGeometry>
        </mxCell>
        <mxCell id="Jmu6xvJF3uU6ScUqE4Zg-22" value="" style="endArrow=none;html=1;rounded=0;entryX=0.5;entryY=1;entryDx=0;entryDy=0;exitX=0.433;exitY=0.05;exitDx=0;exitDy=0;exitPerimeter=0;" edge="1" parent="1" source="Jmu6xvJF3uU6ScUqE4Zg-3" target="Jmu6xvJF3uU6ScUqE4Zg-18">
          <mxGeometry width="50" height="50" relative="1" as="geometry">
            <mxPoint x="680" y="90" as="sourcePoint" />
            <mxPoint x="709" y="31" as="targetPoint" />
          </mxGeometry>
        </mxCell>
        <mxCell id="Jmu6xvJF3uU6ScUqE4Zg-23" value="" style="endArrow=none;html=1;rounded=0;entryX=0.017;entryY=0.383;entryDx=0;entryDy=0;entryPerimeter=0;" edge="1" parent="1" target="Jmu6xvJF3uU6ScUqE4Zg-20">
          <mxGeometry width="50" height="50" relative="1" as="geometry">
            <mxPoint x="710" y="100" as="sourcePoint" />
            <mxPoint x="719" y="41" as="targetPoint" />
          </mxGeometry>
        </mxCell>
        <mxCell id="Jmu6xvJF3uU6ScUqE4Zg-24" value="id" style="ellipse;whiteSpace=wrap;html=1;aspect=fixed;fillColor=#70C1FF;" vertex="1" parent="1">
          <mxGeometry x="740" y="290" width="60" height="60" as="geometry" />
        </mxCell>
        <mxCell id="Jmu6xvJF3uU6ScUqE4Zg-25" value="direccion" style="ellipse;whiteSpace=wrap;html=1;aspect=fixed;" vertex="1" parent="1">
          <mxGeometry x="730" y="360" width="60" height="60" as="geometry" />
        </mxCell>
        <mxCell id="Jmu6xvJF3uU6ScUqE4Zg-26" value="nombre" style="ellipse;whiteSpace=wrap;html=1;aspect=fixed;" vertex="1" parent="1">
          <mxGeometry x="660" y="390" width="60" height="60" as="geometry" />
        </mxCell>
        <mxCell id="Jmu6xvJF3uU6ScUqE4Zg-27" value="" style="endArrow=none;html=1;rounded=0;entryX=0.592;entryY=1;entryDx=0;entryDy=0;entryPerimeter=0;exitX=0.322;exitY=0.034;exitDx=0;exitDy=0;exitPerimeter=0;" edge="1" parent="1" target="Jmu6xvJF3uU6ScUqE4Zg-4" source="Jmu6xvJF3uU6ScUqE4Zg-26">
          <mxGeometry width="50" height="50" relative="1" as="geometry">
            <mxPoint x="660" y="390" as="sourcePoint" />
            <mxPoint x="710" y="340" as="targetPoint" />
          </mxGeometry>
        </mxCell>
        <mxCell id="Jmu6xvJF3uU6ScUqE4Zg-28" value="" style="endArrow=none;html=1;rounded=0;entryX=0.948;entryY=0.995;entryDx=0;entryDy=0;exitX=0.026;exitY=0.293;exitDx=0;exitDy=0;exitPerimeter=0;entryPerimeter=0;" edge="1" parent="1" source="Jmu6xvJF3uU6ScUqE4Zg-25" target="Jmu6xvJF3uU6ScUqE4Zg-4">
          <mxGeometry width="50" height="50" relative="1" as="geometry">
            <mxPoint x="670" y="400" as="sourcePoint" />
            <mxPoint x="671" y="370" as="targetPoint" />
          </mxGeometry>
        </mxCell>
        <mxCell id="Jmu6xvJF3uU6ScUqE4Zg-29" value="" style="endArrow=none;html=1;rounded=0;entryX=1;entryY=0.5;entryDx=0;entryDy=0;exitX=0.05;exitY=0.75;exitDx=0;exitDy=0;exitPerimeter=0;" edge="1" parent="1" source="Jmu6xvJF3uU6ScUqE4Zg-24" target="Jmu6xvJF3uU6ScUqE4Zg-4">
          <mxGeometry width="50" height="50" relative="1" as="geometry">
            <mxPoint x="737" y="391" as="sourcePoint" />
            <mxPoint x="720" y="370" as="targetPoint" />
          </mxGeometry>
        </mxCell>
        <mxCell id="Jmu6xvJF3uU6ScUqE4Zg-30" value="0,N" style="text;html=1;strokeColor=none;fillColor=none;align=center;verticalAlign=middle;whiteSpace=wrap;rounded=0;" vertex="1" parent="1">
          <mxGeometry x="280" y="70" width="60" height="30" as="geometry" />
        </mxCell>
        <mxCell id="Jmu6xvJF3uU6ScUqE4Zg-31" value="0,M" style="text;html=1;strokeColor=none;fillColor=none;align=center;verticalAlign=middle;whiteSpace=wrap;rounded=0;" vertex="1" parent="1">
          <mxGeometry x="530" y="100" width="60" height="30" as="geometry" />
        </mxCell>
        <mxCell id="Jmu6xvJF3uU6ScUqE4Zg-32" value="" style="endArrow=none;html=1;rounded=0;exitX=0.5;exitY=1;exitDx=0;exitDy=0;entryX=0.5;entryY=0;entryDx=0;entryDy=0;" edge="1" parent="1" source="Jmu6xvJF3uU6ScUqE4Zg-3" target="Jmu6xvJF3uU6ScUqE4Zg-5">
          <mxGeometry width="50" height="50" relative="1" as="geometry">
            <mxPoint x="580" y="149" as="sourcePoint" />
            <mxPoint x="690" y="149" as="targetPoint" />
          </mxGeometry>
        </mxCell>
        <mxCell id="Jmu6xvJF3uU6ScUqE4Zg-33" value="" style="endArrow=none;html=1;rounded=0;exitX=0.5;exitY=1;exitDx=0;exitDy=0;entryX=0.5;entryY=0;entryDx=0;entryDy=0;" edge="1" parent="1">
          <mxGeometry width="50" height="50" relative="1" as="geometry">
            <mxPoint x="650" y="260" as="sourcePoint" />
            <mxPoint x="650" y="320" as="targetPoint" />
          </mxGeometry>
        </mxCell>
        <mxCell id="Jmu6xvJF3uU6ScUqE4Zg-34" value="1,N" style="text;html=1;strokeColor=none;fillColor=none;align=center;verticalAlign=middle;whiteSpace=wrap;rounded=0;" vertex="1" parent="1">
          <mxGeometry x="650" y="120" width="60" height="30" as="geometry" />
        </mxCell>
        <mxCell id="Jmu6xvJF3uU6ScUqE4Zg-35" value="1,M" style="text;html=1;strokeColor=none;fillColor=none;align=center;verticalAlign=middle;whiteSpace=wrap;rounded=0;" vertex="1" parent="1">
          <mxGeometry x="590" y="290" width="60" height="30" as="geometry" />
        </mxCell>
        <mxCell id="Jmu6xvJF3uU6ScUqE4Zg-36" value="N:M" style="text;html=1;strokeColor=none;fillColor=none;align=center;verticalAlign=middle;whiteSpace=wrap;rounded=0;" vertex="1" parent="1">
          <mxGeometry x="410" y="140" width="60" height="30" as="geometry" />
        </mxCell>
        <mxCell id="Jmu6xvJF3uU6ScUqE4Zg-37" value="1:N" style="text;html=1;strokeColor=none;fillColor=none;align=center;verticalAlign=middle;whiteSpace=wrap;rounded=0;" vertex="1" parent="1">
          <mxGeometry x="560" y="205" width="60" height="30" as="geometry" />
        </mxCell>
        <mxCell id="Jmu6xvJF3uU6ScUqE4Zg-38" value="" style="shape=or;whiteSpace=wrap;html=1;" vertex="1" parent="1">
          <mxGeometry x="364" width="50" height="50" as="geometry" />
        </mxCell>
        <mxCell id="Jmu6xvJF3uU6ScUqE4Zg-39" value="" style="shape=or;whiteSpace=wrap;html=1;direction=west;fillColor=#FFF566;" vertex="1" parent="1">
          <mxGeometry x="314" width="50" height="50" as="geometry" />
        </mxCell>
        <mxCell id="Jmu6xvJF3uU6ScUqE4Zg-40" value="cod_productos_fk" style="text;html=1;strokeColor=none;fillColor=none;align=center;verticalAlign=middle;whiteSpace=wrap;rounded=0;" vertex="1" parent="1">
          <mxGeometry x="334" y="10" width="60" height="30" as="geometry" />
        </mxCell>
        <mxCell id="Jmu6xvJF3uU6ScUqE4Zg-41" value="" style="shape=or;whiteSpace=wrap;html=1;" vertex="1" parent="1">
          <mxGeometry x="510" width="40" height="50" as="geometry" />
        </mxCell>
        <mxCell id="Jmu6xvJF3uU6ScUqE4Zg-42" value="" style="shape=or;whiteSpace=wrap;html=1;direction=west;fillColor=#FFFF30;" vertex="1" parent="1">
          <mxGeometry x="470" width="40" height="50" as="geometry" />
        </mxCell>
        <mxCell id="Jmu6xvJF3uU6ScUqE4Zg-43" value="id_clientes_fk" style="text;html=1;strokeColor=none;fillColor=none;align=center;verticalAlign=middle;whiteSpace=wrap;rounded=0;" vertex="1" parent="1">
          <mxGeometry x="480" y="10" width="60" height="30" as="geometry" />
        </mxCell>
        <mxCell id="Jmu6xvJF3uU6ScUqE4Zg-44" value="" style="endArrow=none;html=1;rounded=0;" edge="1" parent="1" source="Jmu6xvJF3uU6ScUqE4Zg-2">
          <mxGeometry width="50" height="50" relative="1" as="geometry">
            <mxPoint x="310" y="100" as="sourcePoint" />
            <mxPoint x="360" y="50" as="targetPoint" />
          </mxGeometry>
        </mxCell>
        <mxCell id="Jmu6xvJF3uU6ScUqE4Zg-45" value="" style="endArrow=none;html=1;rounded=0;entryX=0.05;entryY=0;entryDx=0;entryDy=0;entryPerimeter=0;exitX=1;exitY=0;exitDx=0;exitDy=0;" edge="1" parent="1" source="Jmu6xvJF3uU6ScUqE4Zg-2" target="Jmu6xvJF3uU6ScUqE4Zg-42">
          <mxGeometry width="50" height="50" relative="1" as="geometry">
            <mxPoint x="422" y="92" as="sourcePoint" />
            <mxPoint x="370" y="60" as="targetPoint" />
          </mxGeometry>
        </mxCell>
        <mxCell id="Jmu6xvJF3uU6ScUqE4Zg-46" value="" style="shape=or;whiteSpace=wrap;html=1;" vertex="1" parent="1">
          <mxGeometry x="760" y="150" width="50" height="50" as="geometry" />
        </mxCell>
        <mxCell id="Jmu6xvJF3uU6ScUqE4Zg-47" value="" style="shape=or;whiteSpace=wrap;html=1;direction=west;fillColor=#FFFF30;" vertex="1" parent="1">
          <mxGeometry x="710" y="150" width="50" height="50" as="geometry" />
        </mxCell>
        <mxCell id="Jmu6xvJF3uU6ScUqE4Zg-48" value="id_proveedor_fk" style="text;html=1;strokeColor=none;fillColor=none;align=center;verticalAlign=middle;whiteSpace=wrap;rounded=0;" vertex="1" parent="1">
          <mxGeometry x="730" y="160" width="60" height="30" as="geometry" />
        </mxCell>
        <mxCell id="Jmu6xvJF3uU6ScUqE4Zg-50" value="id" style="ellipse;whiteSpace=wrap;html=1;aspect=fixed;fillColor=#4FBEFF;" vertex="1" parent="1">
          <mxGeometry x="334" y="120" width="60" height="60" as="geometry" />
        </mxCell>
        <mxCell id="Jmu6xvJF3uU6ScUqE4Zg-51" value="" style="endArrow=none;html=1;rounded=0;exitX=0.967;exitY=0.4;exitDx=0;exitDy=0;exitPerimeter=0;entryX=0;entryY=1;entryDx=0;entryDy=0;" edge="1" parent="1" source="Jmu6xvJF3uU6ScUqE4Zg-50" target="Jmu6xvJF3uU6ScUqE4Zg-2">
          <mxGeometry width="50" height="50" relative="1" as="geometry">
            <mxPoint x="510" y="200" as="sourcePoint" />
            <mxPoint x="560" y="150" as="targetPoint" />
          </mxGeometry>
        </mxCell>
        <mxCell id="Jmu6xvJF3uU6ScUqE4Zg-52" value="numero existencias" style="ellipse;whiteSpace=wrap;html=1;aspect=fixed;" vertex="1" parent="1">
          <mxGeometry x="740" y="10" width="60" height="60" as="geometry" />
        </mxCell>
        <mxCell id="Jmu6xvJF3uU6ScUqE4Zg-53" value="fecha compra" style="ellipse;whiteSpace=wrap;html=1;aspect=fixed;" vertex="1" parent="1">
          <mxGeometry x="490" y="120" width="60" height="60" as="geometry" />
        </mxCell>
        <mxCell id="Jmu6xvJF3uU6ScUqE4Zg-54" value="" style="endArrow=none;html=1;rounded=0;exitX=0;exitY=0;exitDx=0;exitDy=0;entryX=1;entryY=1;entryDx=0;entryDy=0;" edge="1" parent="1" source="Jmu6xvJF3uU6ScUqE4Zg-53" target="Jmu6xvJF3uU6ScUqE4Zg-2">
          <mxGeometry width="50" height="50" relative="1" as="geometry">
            <mxPoint x="402" y="154" as="sourcePoint" />
            <mxPoint x="425" y="130" as="targetPoint" />
          </mxGeometry>
        </mxCell>
        <mxCell id="Jmu6xvJF3uU6ScUqE4Zg-55" value="apellido" style="ellipse;whiteSpace=wrap;html=1;aspect=fixed;" vertex="1" parent="1">
          <mxGeometry x="580" y="390" width="60" height="60" as="geometry" />
        </mxCell>
        <mxCell id="Jmu6xvJF3uU6ScUqE4Zg-56" value="provincia" style="ellipse;whiteSpace=wrap;html=1;aspect=fixed;" vertex="1" parent="1">
          <mxGeometry x="500" y="370" width="60" height="60" as="geometry" />
        </mxCell>
        <mxCell id="Jmu6xvJF3uU6ScUqE4Zg-57" value="telefono" style="ellipse;whiteSpace=wrap;html=1;aspect=fixed;" vertex="1" parent="1">
          <mxGeometry x="490" y="300" width="60" height="60" as="geometry" />
        </mxCell>
        <mxCell id="Jmu6xvJF3uU6ScUqE4Zg-58" value="" style="shape=or;whiteSpace=wrap;html=1;" vertex="1" parent="1">
          <mxGeometry x="760" y="230" width="60" height="50" as="geometry" />
        </mxCell>
        <mxCell id="Jmu6xvJF3uU6ScUqE4Zg-59" value="" style="shape=or;whiteSpace=wrap;html=1;direction=west;fillColor=#FFFF30;" vertex="1" parent="1">
          <mxGeometry x="700" y="230" width="60" height="50" as="geometry" />
        </mxCell>
        <mxCell id="Jmu6xvJF3uU6ScUqE4Zg-60" value="codigo_producto_fk" style="text;html=1;strokeColor=none;fillColor=none;align=center;verticalAlign=middle;whiteSpace=wrap;rounded=0;" vertex="1" parent="1">
          <mxGeometry x="730" y="240" width="60" height="30" as="geometry" />
        </mxCell>
        <mxCell id="Jmu6xvJF3uU6ScUqE4Zg-61" value="" style="endArrow=none;html=1;rounded=0;entryX=1;entryY=0.5;entryDx=0;entryDy=0;entryPerimeter=0;" edge="1" parent="1" target="Jmu6xvJF3uU6ScUqE4Zg-47">
          <mxGeometry width="50" height="50" relative="1" as="geometry">
            <mxPoint x="680" y="205" as="sourcePoint" />
            <mxPoint x="730" y="155" as="targetPoint" />
          </mxGeometry>
        </mxCell>
        <mxCell id="Jmu6xvJF3uU6ScUqE4Zg-62" value="" style="endArrow=none;html=1;rounded=0;entryX=1;entryY=0.5;entryDx=0;entryDy=0;entryPerimeter=0;exitX=1;exitY=1;exitDx=0;exitDy=0;" edge="1" parent="1" source="Jmu6xvJF3uU6ScUqE4Zg-5" target="Jmu6xvJF3uU6ScUqE4Zg-59">
          <mxGeometry width="50" height="50" relative="1" as="geometry">
            <mxPoint x="690" y="215" as="sourcePoint" />
            <mxPoint x="720" y="185" as="targetPoint" />
          </mxGeometry>
        </mxCell>
        <mxCell id="Jmu6xvJF3uU6ScUqE4Zg-63" value="" style="endArrow=none;html=1;rounded=0;entryX=0.356;entryY=1.023;entryDx=0;entryDy=0;entryPerimeter=0;exitX=0.674;exitY=0.015;exitDx=0;exitDy=0;exitPerimeter=0;" edge="1" parent="1" source="Jmu6xvJF3uU6ScUqE4Zg-55" target="Jmu6xvJF3uU6ScUqE4Zg-4">
          <mxGeometry width="50" height="50" relative="1" as="geometry">
            <mxPoint x="689" y="402" as="sourcePoint" />
            <mxPoint x="671" y="370" as="targetPoint" />
          </mxGeometry>
        </mxCell>
        <mxCell id="Jmu6xvJF3uU6ScUqE4Zg-64" value="" style="endArrow=none;html=1;rounded=0;entryX=0;entryY=0.75;entryDx=0;entryDy=0;exitX=1;exitY=0;exitDx=0;exitDy=0;" edge="1" parent="1" source="Jmu6xvJF3uU6ScUqE4Zg-56" target="Jmu6xvJF3uU6ScUqE4Zg-4">
          <mxGeometry width="50" height="50" relative="1" as="geometry">
            <mxPoint x="699" y="412" as="sourcePoint" />
            <mxPoint x="681" y="380" as="targetPoint" />
          </mxGeometry>
        </mxCell>
        <mxCell id="Jmu6xvJF3uU6ScUqE4Zg-65" value="" style="endArrow=none;html=1;rounded=0;entryX=0;entryY=0.5;entryDx=0;entryDy=0;exitX=0.989;exitY=0.645;exitDx=0;exitDy=0;exitPerimeter=0;" edge="1" parent="1" source="Jmu6xvJF3uU6ScUqE4Zg-57" target="Jmu6xvJF3uU6ScUqE4Zg-4">
          <mxGeometry width="50" height="50" relative="1" as="geometry">
            <mxPoint x="561" y="389" as="sourcePoint" />
            <mxPoint x="600" y="360" as="targetPoint" />
          </mxGeometry>
        </mxCell>
        <mxCell id="Jmu6xvJF3uU6ScUqE4Zg-66" value="id" style="ellipse;whiteSpace=wrap;html=1;aspect=fixed;fillColor=#4FBEFF;" vertex="1" parent="1">
          <mxGeometry x="572.5" y="245" width="35" height="35" as="geometry" />
        </mxCell>
        <mxCell id="Jmu6xvJF3uU6ScUqE4Zg-68" value="" style="endArrow=none;html=1;rounded=0;entryX=1;entryY=1;entryDx=0;entryDy=0;" edge="1" parent="1" target="Jmu6xvJF3uU6ScUqE4Zg-37">
          <mxGeometry width="50" height="50" relative="1" as="geometry">
            <mxPoint x="600" y="250" as="sourcePoint" />
            <mxPoint x="650" y="200" as="targetPoint" />
          </mxGeometry>
        </mxCell>
      </root>
    </mxGraphModel>
  </diagram>
</mxfile>
